# xmcd
#
# Track frame offsets:
#	150
#	10961
#	27586
#	49601
#	64052
#	81733
#	105706
#	121496
#	133256
#	147075
#	162639
#	182226
#	199393
#	218482
#
# Disc length: 3071 seconds
#
# Revision: 0
# Processed by: cddbd v1.5.1PL0 Copyright (c) Steve Scherf et al.
# Submitted via: dBpowerAMP V4.0
#
DISCID=d80bfd0e
DTITLE=Booklyn Cowboys - Dodging Bullets
DYEAR=2002
DGENRE=Country
TTITLE0=I Was Wrong
TTITLE1=Trick Ponies
TTITLE2=Dodging Bullets
TTITLE3=Hey Jamaica
TTITLE4=Trouble With A Capitol T
TTITLE5=The City Is Different (Without You In It)
TTITLE6=My Heart Is In Denial (The 12 Step 2 Step)
TTITLE7=Rita
TTITLE8=Someone You Can Live With
TTITLE9=I Stand Accused
TTITLE10=The Gift
TTITLE11=You Never Quit On Me
TTITLE12=Waycross Stables
TTITLE13=What You Call Love
EXTD=
EXTT0=
EXTT1=
EXTT2=
EXTT3=
EXTT4=
EXTT5=
EXTT6=
EXTT7=
EXTT8=
EXTT9=
EXTT10=
EXTT11=
EXTT12=
EXTT13=
PLAYORDER=
